<?xml version="1.0" encoding="utf-8"?>
<!-- Generator: Adobe Illustrator 25.4.1, SVG Export Plug-In . SVG Version: 6.00 Build 0)  -->
<svg version="1.1" id="Layer_1" xmlns="http://www.w3.org/2000/svg" xmlns:xlink="http://www.w3.org/1999/xlink" x="0px" y="0px"
	 viewBox="0 0 867 632.1" style="enable-background:new 0 0 867 632.1;" xml:space="preserve">
<style type="text/css">
	.st0{fill:#E6E6E6;}
	.st1{fill:#3F3D56;}
	.st2{fill:#48BB78;}
	.st3{fill:#E1B2A5;stroke:#000000;stroke-miterlimit:10;}
	.st4{fill:#48BB78;stroke:#000000;stroke-miterlimit:10;}
	.st5{fill:#1E1A1D;stroke:#000000;stroke-miterlimit:10;}
	.st6{fill:#2F2E41;stroke:#000000;stroke-miterlimit:10;}
	.st7{fill:none;stroke:#000000;stroke-miterlimit:10;}
	.st8{stroke:#000000;stroke-miterlimit:10;}
	.st9{fill:#3F3D56;stroke:#000000;stroke-miterlimit:10;}
	.st10{fill:#E4E4E4;}
	.st11{display:none;}
	.st12{fill:#ECF3E0;stroke:#000000;stroke-miterlimit:10;}
	.st13{display:none;fill:#81423E;stroke:#000000;stroke-miterlimit:10;}
	.st14{fill:none;stroke:#E4E4E4;stroke-miterlimit:10;}
	.st15{display:none;fill:none;stroke:#000000;stroke-miterlimit:10;}
</style>
<g id="Diagram">
	<path class="st0" d="M328.7,156.9h-67.3c-8.1,0-14.6,6.5-14.6,14.6l0,0c0,8.1,6.5,14.6,14.6,14.6h67.3c8.1,0,14.6-6.5,14.6-14.6
		l0,0C343.3,163.4,336.8,156.9,328.7,156.9z"/>
	<polygon class="st1" points="346.3,172.6 349.4,175.1 365.4,175.1 362.7,172.6 365.4,170.4 349.3,170.4 	"/>
	<polygon class="st1" points="364.6,172.6 367.7,175.1 388.1,175.1 385.4,172.6 388.1,170.4 367.5,170.4 	"/>
	<path class="st1" d="M476.1,240.2H409c-10.2,0-18.4,8.2-18.4,18.4l0,0c0,10.2,8.2,18.4,18.4,18.4h67.1c10.2,0,18.4-8.2,18.4-18.4
		l0,0C494.6,248.4,486.3,240.2,476.1,240.2z"/>
	<path class="st1" d="M669,189.9h-28.8c-5.9,0-10.7,4.8-10.7,10.7l0,0c0,5.9,4.8,10.7,10.7,10.7H669c5.9,0,10.7-4.8,10.7-10.7l0,0
		C679.7,194.7,674.9,189.9,669,189.9z"/>
	<polygon class="st1" points="442.4,236.8 445,233.8 445,217.8 442.4,220.5 440.2,217.8 440.2,233.9 	"/>
	<polygon class="st1" points="442.4,218.6 445,215.5 445,195.1 442.4,197.8 440.2,195.1 440.2,215.6 	"/>
	<path class="st1" d="M392.2,170.4c0,0-4.9,2.5,0,4.8s50.4,17.6,50.4,17.6l52-17.6c0,0,3.6-2.4,0-3.6c-3.6-1.2-52-18.8-52-18.8
		L392.2,170.4z"/>
	<path class="st1" d="M452.2,120.1c0,0-7.7-0.7-10.2,5c-2.4,5.6-1.8,21.9-1.8,21.9l2.9,2.8l2.8-2.8c0,0-0.7-15.6,0.9-19.2
		c1.6-3.6,5-2.6,5-2.6l-2.2-2.6L452.2,120.1z"/>
	<path class="st1" d="M451.2,122.3c0,0.1,2.7,2.8,2.7,2.8h19.6l-3.1-2.6l3.1-2.5h-19.2L451.2,122.3z"/>
	<path class="st2" d="M518.8,106.4L475.6,121c0,0-3.7,1.8,0,4c3.7,2.3,43.9,13.7,43.9,13.7l43.1-13.7c0,0,4.9-1.8,0-4.4
		C558.9,118.8,518.8,106.4,518.8,106.4z"/>
	<polygon class="st1" points="698,122.8 695.3,120.2 721.4,120.2 724.4,122.8 721.5,125 695.3,125 	"/>
	<polygon class="st1" points="725.8,122.8 723.2,120.2 742.6,120.2 745.7,122.8 742.8,125 723.2,125 	"/>
	<path class="st1" d="M757.2,213c0,0-35.9,0.7-46.1-9.4c0,0-13.8-10-8.2-44.8c2.7-16.9,5.3-29.1,17.2-33.9h-10.5
		c-3.3,5.9-6,8-9.5,20.6c-3.9,14-5.8,45.5,1.5,56.2c8.1,11.9,22.3,17.4,55.7,16.3l-2.7-2.6L757.2,213z"/>
	<path class="st2" d="M749.4,125c0,0-2.9-2,0-4.1c2.9-2,46-28.1,46-28.1l44.1,27.4c0,0,3.4,2,0,4.8c-3.4,2.7-44.9,27.4-44.9,27.4
		L749.4,125z"/>
	<polygon class="st1" points="654.6,187.6 657.2,184.5 657.2,168.6 654.6,171.2 652.4,168.6 652.4,184.6 	"/>
	<polygon class="st1" points="654.6,169.3 657.2,166.3 657.2,145.8 654.6,148.5 652.4,145.8 652.4,166.4 	"/>
	<path class="st2" d="M473.4,59.6h-32c-5.1,0-9.2,4.1-9.2,9.2l0,0c0,5.1,4.1,9.2,9.2,9.2h32c5.1,0,9.2-4.1,9.2-9.2l0,0
		C482.6,63.7,478.4,59.6,473.4,59.6z"/>
	<polygon class="st1" points="611.4,122.8 608.3,120.2 587.5,120.2 590.2,122.8 587.5,125 608.5,125 	"/>
	<polygon class="st1" points="588.2,122.8 585.2,120.2 564.7,120.2 567.4,122.8 564.7,125 585.3,125 	"/>
	<path class="st0" d="M615.3,123.9c0,0-2.5-1.6,0-3.3c2.5-1.6,39.5-22.4,39.5-22.4l37.9,21.9c0,0,2.9,1.6,0,3.8
		c-2.9,2.2-38.6,21.9-38.6,21.9L615.3,123.9z"/>
	<path class="st0" d="M830.4,226.7h-71c-0.5,0-0.9-0.4-0.9-0.9v-20.9c0-0.5,0.4-0.9,0.9-0.9h71c0.5,0,0.9,0.4,0.9,0.9v20.9
		C831.3,226.3,830.9,226.7,830.4,226.7z"/>
	<polygon class="st1" points="794.8,202.2 797.3,199.1 797.3,183.2 794.8,185.9 792.6,183.2 792.6,199.3 	"/>
	<polygon class="st1" points="794.8,183.9 797.3,180.9 797.3,155.1 794.8,157.8 792.6,155.1 792.6,181 	"/>
	<path class="st1" d="M610.2,59.6h-47.7c-5.1,0-9.2,4.1-9.2,9.2l0,0c0,5.1,4.1,9.2,9.2,9.2h47.7c5.1,0,9.2-4.1,9.2-9.2l0,0
		C619.4,63.7,615.3,59.6,610.2,59.6z"/>
	<path class="st0" d="M535.3,29.8h-32c-5.1,0-9.2,4.1-9.2,9.2l0,0c0,5.1,4.1,9.2,9.2,9.2h32c5.1,0,9.2-4.1,9.2-9.2l0,0
		C544.5,34,540.4,29.8,535.3,29.8z"/>
	<path class="st1" d="M551.6,65.8c0,0-14.9-0.3-24,2.6c-9.1,3-9.4,15.5-9.4,15.5l-1.3,16.9l2.4,3.1l2.3-3.1c0,0,0.4-13.2,0.7-17
		c0.4-4.2,1.3-10.2,8-12c6.8-1.8,21.1-1.4,21.1-1.4l-2.3-2.4L551.6,65.8z"/>
	<path class="st1" d="M484.3,66.5c0,0,14.4-1.9,23.4,1.5c8.8,3.4,12.3,12.3,13.2,17.3c0.7,4.2,0.8,15.6,0.8,15.6l-2.4,3.1l-2.3-3.1
		c0,0,0-10.5-0.7-14.3c-0.8-4.1-2.9-12-10.4-14.6c-6.6-2.2-21.4-0.9-21.4-0.9l2.3-2.4L484.3,66.5z"/>
	<polygon class="st1" points="516.9,49.4 519.3,52.3 521.7,49.4 521.7,100.9 519.3,104 516.9,100.9 	"/>
</g>
<g id="Critter__x28_Green_x29_">
	<path class="st3" d="M296.1,319.5c15.5,7.2,32.6,8.2,49.6,6.3c-4.7-11.2-7.6-23.1-8.6-35.2c-0.1-1.5-0.5-3.4-1.9-3.8
		c-0.4-0.1-0.9-0.1-1.4-0.1c-6.6,0.4-13.3,1-19.9,1.8c-5.5,0.6-14,0.3-18.9,2.6c-4.2,2-9,3.9-8.4,8.2
		C286.9,301.9,294,318.6,296.1,319.5z"/>
	<g>
		<path class="st4" d="M289.5,581.1c14.9,12.3,34.3,19.2,53.6,19.1c11.1-0.1,22-2.3,33.1-2.4c23.3-0.3,45.9,8.7,69.1,8.7
			c4.4,0,6.7-2.2,5.9-7.7c-0.5-3.3-0.8-6.7-2.3-9.6c-1-2.1-2.5-3.9-4.1-5.6c-7.6-8.8-15.9-18.7-25.5-25.4
			c-14.2-10-33.4-6.9-50.4-10.2c-9.2-1.8-18.1-5.6-25.7-11.2c-5.7-4.1-10.8-9.2-17-12.6c-6.6-3.6-14.4-5.1-21.9-4.2
			c-5,0.6-10.2,2.6-12.7,6.9c-1.1,1.9-1.6,4.1-2,6.2c-3.5,17.7-5.5,35.6-5.9,53.6L289.5,581.1z"/>
		<path class="st5" d="M299.8,521.4c9-2.7,19-1.9,27.4,2.2c0.4,0.2,0.9,0.4,1.1,0.9c0.1,0.3,0.1,0.6,0.1,0.9
			c0,3.7,1.2,11.5-0.7,14.8c-1.2,2.1-1.8,1.1-3.8-0.3c-1.7-1.2-3.3-2.4-5-3.5C312,532.1,304.5,528.2,299.8,521.4z"/>
		<path class="st5" d="M419.4,573.8c0,4.2,2.3,8,4.2,11.7c2.1,4.2,3.9,8.6,5.2,13.2c0.5,1.7,1,3.6,2.2,4.9c1.2,1.3,3,1.9,4.8,2.3
			c3.3,0.8,6.8,1.3,10.2,1.4c0.8,0,1.6,0,2.2-0.4c0.9-0.5,1.3-1.5,1.6-2.5c1.2-4.3,1-9.1-0.6-13.3c-1.7-4.6-5-8.3-8.2-12
			c-2.9-3.3-5.8-6.7-8.6-10c-2.5-2.9-4.7-4.9-8.4-3.1C421.2,567.4,419.4,570.5,419.4,573.8z"/>
	</g>
	<g>
		<path class="st4" d="M116.9,534.3C105.3,542.4,89,541,77.3,549c-4.6,3.1-8.2,7.5-11.3,12.1c-9.7,14.3-15.6,31.2-16.8,48.4
			c-0.1,1.5-0.2,3.2,0.6,4.5c1.8,3,6.3,2.5,9.6,1.2c19.5-7.6,34.3-25.8,54.8-29.4c8.2-1.4,16.7-0.4,24.9-2.1
			c7.8-1.7,14.9-5.8,21.6-10c4-2.5,8.4-5.8,8.4-10.5c0-4.4-3.8-7.7-7.3-10.2c-15.8-10.9-34.5-17.8-53.6-19.7"/>
		<path class="st5" d="M80.9,572.7c-2.2-3.3-5.6-5.9-9.6-6.3c-4.3-0.4-8.6,2-11.4,5.4s-4.4,7.5-5.7,11.7c-2.4,7.9-4.1,16-4.9,24.2
			c-0.2,2.4-0.3,5.1,1.3,6.9c1.4,1.6,3.7,2.1,5.8,1.8s4-1.3,5.8-2.3c3.4-1.8,6.8-3.6,10.3-5.4c5.4-2.8,12.6-6.6,13-13.4
			C85.9,588.2,84.8,578.8,80.9,572.7z"/>
	</g>
	<path class="st6" d="M317.7,530.8c10-2.8,18.4-11.7,28.8-11.4c5.6,0.2,11.6,3.1,16.5,0.4c3.4-1.9,5-5.8,7.7-8.5
		c5.4-5.5,14.1-5.5,21-8.8c4.1-1.9,7.5-5,10.8-8c12.8-11.8,24.6-24.6,35.5-38.3c6.3-8,12.4-16.5,15.2-26.3s1.6-21.3-5.2-28.8
		c-6.2-6.8-15.6-9.3-24.5-11.3c-12-2.7-24.5-4.9-36.3-1.7c-7.7,2.1-14.6,6.5-22,9.6c-12.2,5.1-25.6,6.8-38.7,8.4
		c-50.9,6.1-101.7,12.2-152.6,18.3c-5.2,0.6-10.7,1.4-14.4,5.1c-1.1,1.1-2.1,2.6-2.2,4.2c-0.1,1.2,0.3,2.4,0.7,3.6
		c5.5,14.2,19.8,22.5,31.9,31.8c7,5.4,13.5,11.4,20.9,16.2c9.5,6.2,20.2,10.2,30.4,15.2c16.3,8.2,31,19.2,45.7,30.1L303,535
		L317.7,530.8z"/>
	<g>
		<path class="st4" d="M184.3,366.5c-12.3-1.1-24.9-2.3-36.1-7.7c-1-0.5-1.9-1-3-1.3c-0.9-0.2-1.7-0.3-2.6-0.3
			c-6.4-0.2-12.7,1.9-19.1,1.4c-3.1-0.2-6-1.1-8.9-2c-14.7-4.6-28.7-11.4-41.4-20.2c1.2-10.9,5.6-20.9,11.7-30
			c-6.9,0-13.7-1.5-20.4-2.9c-15-3.2-30-6.5-44-12.8c-3.5-1.6-6.9-3.3-10.2-5.2c16.6-39.3,33.2-78.5,49.8-117.8
			c4.5-2.7,9.5-5.2,14-7.9c5.6-3.4,11.2-6.8,17.4-9c18.3-6.5,39.4-1.5,57.2-9.4c5.6-2.5,11.3-6.3,17.3-4.8
			c4.8,5.1,13.2,5.8,20.2,6.5c14.1,1.5,28.1,3,42.2,4.5c9.8,1,19.7,2.1,29.1,5.1c17.4,5.5,31.6,12.7,45.5,24.5
			c1.9,1.6,4.9,6.4,6.2,8.5c2.1,3.3,2.6,7.9,4.3,11.4c11.2,23,13.3,64.5,28.1,93.6c-13.9,6.9-32.6,12.3-48.1,12.8
			c-2.8,0.1-5.7,0-8.1-1.3c-4.6-2.6-5.6-8.7-6.2-13.9c-1.5,19.7-3.6,40.3-6.1,59.9c-0.9,7-1.9,14.2-5.1,20.4
			c-5.2-0.6-10.3,1.1-15.4,2.4C229.1,377,208.3,368.6,184.3,366.5z"/>
		<path class="st7" d="M63.6,168.1c1.7,0.7,3.1,1.9,4.5,3.1c5.2,4.5,10.1,9.3,14.7,14.4c1.5,1.7,3,3.4,4.1,5.3
			c1.9,3.2,3,6.8,4.4,10.3s3.3,6.9,4.9,10.4c5.7,12,8.8,25.2,9.2,38.5"/>
		<path d="M104.4,253.9c-2.1,7.9-4.6,15.7-7.2,23.5c-1.4,4.4-2.9,8.9-4.8,13.1c-1.6,3.3-3.4,6.4-5.2,9.6
			c-6.2,11.4-10.9,23.6-13.7,36.2c-0.2,0.8-0.3,1.7,0.3,2.2c0.8,0.6,1.9-0.1,2.6-0.8c-0.7-2.7,0.4-5.4,1.5-7.9
			c9-20.7,19-41.4,29.5-61.4c4.1-7.8,8-15.7,11.6-23.7c1.4-3,2.7-6.1,3.8-9.2c2.9-8.5,5.3-16.7,8.6-25.1c3.1-7.8,4.2-13.6,7-21.1
			c2-5.6,2.8-13.7,4.6-19.4c1.4-4.3,2.1-10.2,3.2-14.6c1.2-4.8,0.9-8.9,2.1-13.7c-6.4,1.8-13.3,4.1-20,4.1
			c-3.6,7.6-7.2,15.3-9.2,23.5c-0.9,3.7-1.4,7.5-2.1,11.3c-2.8,16.7-13.3,50.7-13.3,50.7c0.5,0.3,2.2,11.5,1.6,17
			c-0.2,1.9-0.3,3.1-1,4.9C104,254,104.7,253,104.4,253.9z"/>
		<path d="M254,206.4c1.7,7.8,3.7,15.6,7.8,22.4c1.3,2.1,2.8,4.1,4.2,6.2c6,8.9,10.2,18.9,12.3,29.4c-0.3-5.1,0.1-10.2,1.3-15.2
			c0.5-1.9,1.1-3.8,1-5.7c-0.1-2-0.8-3.9-1.6-5.8c-6.6-17-10.2-35.2-17.4-52C258.8,193.3,257,198.9,254,206.4z"/>
		<path class="st7" d="M304.2,187.9c-6,6-10.4,13.4-12.8,21.5c-0.9,3.1-1.5,6.3-2.5,9.3c-1.6,5.1-4.2,9.9-6.7,14.6"/>
		<path class="st7" d="M87.1,317.5c21.7,7.4,45.1,6.4,68,5.3c3.3-0.2,6.7-0.4,9.5-2.1c0.7-0.4,1.3-0.9,1.5-1.7
			c0.3-1.1-0.4-2.2-1.4-2.8s-2.2-0.5-3.3-0.5c-7.5,0.3-14.8,3.3-22.2,2.2c-1.1-0.2-2.4-0.6-2.7-1.7c6.1-2.7,12.7-4.1,19.3-5.3
			c25.8-4.8,52.2-6.9,78.4-6.4"/>
		<path class="st4" d="M121,236.6c0.2,0.1,0.4,0.2,0.4,0.3c0.1,0.2,0,0.4,0,0.5c-0.8,2.5-1.9,4.8-3.2,7c-5.1-1.5-10-3.7-14.7-6.4
			c0.1-2.3,0.3-4.9,1-7.1c0.8-2.6,2.1-1.5,4-0.4C112.6,232.9,116.7,234.9,121,236.6z"/>
		<path class="st7" d="M278.7,265.3c2.6,7,1.8,15.8,0.3,23.1"/>
	</g>
	<path class="st8" d="M313.4,383.5l-194.9,12.9l35.8,67.1c0,0,1.5,6.9,13.2,5.7c11.7-1.2,220.9-26,220.9-26s6.2-0.3,6.2-2.3
		L313.4,383.5z"/>
	<g>
		<path class="st3" d="M214.5,391.5c1.6-3.8,2.7-7.9,2-11.9s-3.4-7.9-7.3-9.1c-8.9-2.6-17.1-3.2-26.4-3.5
			c-9.2-0.3-18.9-1.2-26.7-6.3c-4.1-2.6-7-2.8-11.8-3.4c-4.8-0.5-12.3,2.1-17.1,1.3c-18.4-2.8-36.5-10.3-52.6-21.6
			c0,0,3.7-17.2,10.3-29.4c-6.4-0.9-12.8-2.4-19.1-3.9c-6-1.4-12-2.8-18.1-4.2c-9.7-2.2-19.4-4.5-28.3-8.8c-0.2,2.9-0.5,5.9-0.7,8.8
			l0.4-2.1c-1.9,6.8-3.7,13.6-5.6,20.4c-4.8,17.4-9.6,35.3-7.4,53.2c0.2,1.9,0.6,3.9,1.6,5.5c1.1,1.6,2.9,2.7,4.7,3.5
			c4.6,2.1,9.5,3.3,14.4,4.4c37.5,8.1,75.8,12.3,114.2,12.4c1.3,0,2.6,0,3.7,0.6c1.2,0.7,1.9,2,2.7,3.2c3.7,5.8,10.1,9.6,16.9,10.9
			c6.8,1.4,13.8,0.5,20.4-1.3c11.3-3.2,21.6-9.5,29.7-18"/>
		<path class="st7" d="M38.8,325.9c13,1.2,24.1,3.4,35.1,10.5"/>
	</g>
	<g>
		<path class="st9" d="M162.9,478.4c0,0-5.6,1.5-9.4-4.9c-3.8-6.4-35-70.2-35-70.2v-7l36.5,68.6c0,0,2.3,4.1,7.9,4.6
			c5.6,0.5,226.9-26.4,226.9-26.4s3-0.5,4.7-2.2l-1,8.7c0,0-2,3.3-6.6,3.6C382.2,453.4,162.9,478.4,162.9,478.4z"/>
		<path class="st9" d="M188.9,334.4L157.3,458c0,0-2.6,7.7,3,9.4s230.6-24.5,230.6-24.5s3.8-1,6.6-5.6
			c2.8-4.6,75.8-112.5,75.8-112.5s6.9-9.8-7.4-9.3s-263.2,6.1-263.2,6.1S190.7,321.9,188.9,334.4z"/>
		<path class="st10" d="M302.6,402.1c1.2,2,3.3,3.5,5.5,4.4c4.1,1.7,9.1,1.5,12.5-1.3c1.5-1.2,2.7-2.8,3.6-4.6
			c1.3-2.7,2-5.8,1.2-8.7C321.8,377.6,294.2,388.1,302.6,402.1z"/>
	</g>
	<g>
		<path class="st6" d="M40,383.5c-13.7,9-25,22.2-30.4,37.7s-4.5,33.4,3.6,47.7c8.1,14.2,22.2,23.7,33.2,35.8
			c3.9,4.3,7.5,9,12.2,12.4c4.8,3.5,10.4,5.5,15.9,7.5c21.7,8,43,17,63.8,27c7.2,3.5,14.4,7.1,21.6,10.7
			c16.7,8.4,33.4,16.7,50.1,25.1c3.8,1.9,7.6,3.8,10.5,6.8c7.1,7.3,7.3,19.2,14.1,26.8c6.4,7.1,17.7,8.5,26.6,4.8
			c8.9-3.6,15.5-11.4,19.9-19.9c8.1-15.7,9.1-34,10.1-51.7c0.5-9,0.7-18.6-4.3-26c-3.7-5.4-6.7-8.4-12.4-11.4
			c-19.9-10.4-40.6-34-55.2-33c-0.6,0-20.2-15.3-31.1-24.1c-19.7-15.8-46-33.8-62-53.4c-5.8-7.1-13.1-13.6-20.9-18.4
			c-8.4-5.2-18.4-7.1-28.3-7.9c-16.2-1.4-32.2-0.2-44.7,8.9"/>
		<path class="st7" d="M10.6,447.3c1.5,5.7,8.9,7.3,12.6,11.9c2.1,2.6,2.8,6.1,4.6,8.9c2.4,3.7,6.3,6.1,10.1,8.4
			c9.7,5.9,19,12.2,28.1,19c2.9,2.2,5.9,4.4,9.1,6c3.9,1.9,8.2,2.8,12,4.9c3.2,1.8,5.9,4.2,8.6,6.7c8.5,7.5,17.6,14.4,27.2,20.5"/>
		<path class="st7" d="M156.4,512.4c2.7,4.5,6.5,8.2,10.2,12c18,18.5,33.8,39.2,47.1,61.3"/>
	</g>
	<g>
		<path class="st3" d="M167.4,74.3c-0.9-2-1.8-4.2-3.5-5.6s-4.4-1.9-6.1-0.4c-0.9,0.8-1.4,2-1.7,3.2c-1.5,6.4-1.6,12.6-1.4,19.3
			c0.2,4.9,1.9,9.5,3.7,14.1c2.8,7.1,7.8,10.4,7.8,10.4c-0.7,11.1-0.3,23.5,5.2,33.2c2.4,4.2,3.3,8.4,5.6,12.7
			c5.6,10.5,15,19.2,26.4,22.5c8.4,2.5,17.7,1.9,25.7-1.6s14.8-9.8,18.7-17.7c2.1-4.1,3.4-8.6,4.7-13.1c3.4-11.5,6.7-23.1,8.1-35.1
			c0.5-4.3,0.7-8.7,2.1-12.8c0.7-2,1.6-3.8,1.9-5.9c0.2-2.1-0.3-4.3-0.5-6.4c-0.1-2.1,0.3-4.5,1.9-5.9c5.1-4.1,0.4-13.8-4.2-18.4
			c-4.7-4.6-11.1-6.8-17.4-8.5C231.9,55,219,53.4,206,53.5c-7.7,0.1-15.4,0.8-22.6,3.6S170.4,67.2,167.4,74.3z"/>
		<path class="st7" d="M217.4,123.5c0.1,1.1-0.4,2.1-1.1,2.9c-0.7,0.8-1.5,1.6-2,2.5c-0.9,1.8-0.6,4,0.4,5.8
			c0.3,0.6,0.8,1.2,1.4,1.4s1.5-0.1,1.6-0.8c0-0.4-0.1-0.7-0.2-1.1s0.1-0.8,0.4-0.9c0.2,0,0.4,0.1,0.5,0.1c1.3,0.7,2.3,1.9,2.9,3.2
			c1,2.4,3.3,3.4,6,3.9c2.3,0.5,5.2,0.5,6.5-1.5c0.5-0.8,0.8-1.9,1.7-2.3c0.1,0.6,0,1.1-0.2,1.7c0.7,0.5,1.9,0.2,2.4-0.5
			c0.6-0.7,0.8-1.6,0.9-2.5c0.3-1.8,0.5-3.8-0.3-5.4c-0.4-0.8-1-1.4-1.4-2.2c-1.7-2.8-0.7-6.5-1.6-9.6"/>
		<path class="st11" d="M210.5,101.4c-1.1-0.8-2.7-0.7-3.7,0.1c-1,0.8-1.4,2.4-0.8,3.6c0.1,0.2,0.3,0.5,0.4,0.6
			c0.3,0.2,0.6,0.4,0.9,0.5c0.6,0.2,1.2,0.4,1.8,0.3C211.9,106.4,212.7,103,210.5,101.4z"/>
		<path class="st11" d="M247.9,108.6c-0.7-1.1-2.2-1.5-3.4-1c-2.4,1-2.2,4.6,0.3,5.4C247.2,113.8,249.4,110.6,247.9,108.6z"/>
		<path d="M273.2,106.6l-8.9-14l0.3,4.9l5.1,9.1c0,0-8.9-0.8-17.9-1.9s-11.6,1.9-11.6,1.9c-3.9-1.6-14.6-2.5-14.6-2.5
			c-4.2-7.2-34-8.6-34-8.6L174,71.8h-3.1l17.5,24.7c-0.4,1.8,2.6,5.1,2.6,5.1s0,0,0.2,8.5s3.6,9.2,3.6,9.2s5.5,3.1,12.9,4
			s12.2-1.7,15.1-4.6c3-2.9,5.1-10,5.1-10c1.2-1.2,4.6-0.8,5.8,0.2c1.2,0.9,1.6,4.8,1.6,4.8c0.3,4.4,0.5,7.8,2.9,11.6
			c2.4,3.7,12.8,3.8,18.7,3.3c6-0.5,8.2-5.2,8.2-5.2l6.8-11.1c0,0,1.9-0.3,2.6-1.7C275.5,109.3,273.2,106.6,273.2,106.6z M225,112.5
			c-2,4.5-3.2,7.1-11.2,9.2c-8,2-18.7-4.9-18.7-4.9s-4.3-4.5-0.9-15.1c0,0,2.5-1,2.6-2.7c0-0.4,6.5-0.2,6.9-0.1
			c5.3,0.3,10.6,1.3,15.4,3.6c1.3,0.6,3.5,2.1,4.2,2.7C225.5,107,226.2,109.8,225,112.5z M268.3,113.8c0,0-2,5.1-5.5,10.2
			c-3.5,5.1-20.2,3.8-23.3,0c-3.2-3.8-2-8.9-2-8.9c0.3-7.8,8.6-8.5,8.6-8.5s16.7,0.6,20,2.3C269.4,110.6,268.3,113.8,268.3,113.8z"
			/>
		<path class="st7" d="M160.2,100.8c0.8,1.4,2.2,2.8,3.7,2.3c1.3-0.5,1.6-2.1,1.5-3.5c-0.2-1.3-0.6-2.7-0.3-4
			c0.6-2.1,3.2-3.3,3.2-5.4c0-1.5-1.3-2.6-1.9-4c-1.3-2.8-0.9-6-2.6-8.7c-0.8-1.3-3.1-4.1-4.9-3.6c-2,0.6-1.7,5.5-1.8,7.1
			c-0.3,3.2-0.3,6.4,0,9.6C157.4,94.2,158.4,97.7,160.2,100.8z"/>
	</g>
	<g>
		<path class="st9" d="M258.9,155.1c0.5,0.5,1.3,0.7,2.1,0.8c0.7,0.2,1.5,0.4,1.9,1.1c0.4,0.7-0.1,1.7-0.9,1.6
			c0.7,0.8,1.9,1.1,2.9,1.5s2.1,1.1,2.3,2.1c-1.3-0.4-2.7-0.1-3.7,0.7c1,0.5,1.9,1.1,2.7,1.9c-0.9,0.3-1.7,0.6-2.6,0.8
			c1,1.7,2.3,3.2,3.7,4.4c-1-0.4-2.2-0.2-3.1,0.5c1.5-0.1,2.9,0.9,3.6,2.2s1,2.8,1.2,4.3c-0.5-0.9-1.7-1.4-2.7-1.3s-2.1,0.5-3,1.1
			c1.8,0.9,3.4,2.3,4.6,4c-1.6-0.3-3.2,0-4.6,0.8c2.1,0.3,4.5,0.7,5.8,2.4c-1.6,0.3-3.1,1-4.4,1.9c2,0.5,3.8,1.7,5,3.4
			c0.2,0.3,0.4,0.7,0.4,1.1c0,0.5-0.5,0.9-0.9,1.4s-0.4,1.2,0.2,1.4c-1.2-0.5-2.7-0.4-3.9,0.3c-0.1,0.1-0.3,0.2-0.3,0.3
			c-0.1,0.3,0.2,0.5,0.4,0.7c1,0.7,2.3,1.4,2.6,2.7c0.2,0.7-0.1,1.5-0.2,2.3s0,1.7,0.7,2.1c-1.3-0.7-3-0.7-4.4,0
			c2.1,1.1,3.5,3.4,3.4,5.8c-0.4,0.1-0.9,0-1.3-0.2c0,0.3,0,0.6,0,0.9c-0.9-1.4-3-1-4.6-0.5c1,0.2,1.3,1.5,1.2,2.5
			c-0.2,1-0.6,2-0.5,3c-0.7-0.7-1.8-1-2.7-0.9c0.6,0.5,0.9,1.4,0.5,2.1c-1.3,0.3-2.7-0.3-3.5-1.4c-1.6,1.6-2.3,4-2,6.3
			c-1,0.1-1.9-0.1-2.8-0.4c0.4,1.1,0.3,2.7,0.1,3.8c-1.4-1.2-3.3-1.8-5.2-1.7c0.8,1.2,1.6,2.3,2.4,3.5c-1.7-0.3-3.5-0.4-5.3-0.1
			c-0.2,0-0.3,0.1-0.4,0.2c-0.1,0.2,0,0.5,0.2,0.7c0.7,0.9,1.4,1.8,2.1,2.7c-0.2,0.8-1.3,0.8-2,0.6c-0.7-0.3-1.5-0.7-2.3-0.5
			c-1.1,0.3-1.2,2.1-0.1,2.6c-1.4-1.4-3.5-2-5.4-1.6c-0.1,2.1-0.5,4.2-1.2,6.1c-1.6-2.2-5.7-1.2-7.1-3.5c-0.8,0.3-1.3,1.1-1.3,1.9
			c0,0.8,0.6,1.6,1.4,1.8c-2-0.2-4-0.7-6-1.3c-0.5-0.2-1.1-0.6-0.9-1c-1.4,0.4-2.4,1.9-2.2,3.4c-0.8-1.4-1-3-0.7-4.5
			c-2.1,0.5-3.5,2.7-3.3,4.8c-2.3-0.4-4.6-0.7-6.9-1.1c-0.2,0-0.4-0.1-0.6,0c-0.5,0.2-0.5,0.9-0.4,1.4c0.2,0.5,0.5,0.9,0.6,1.5
			c-1.3-0.6-2.7-1.2-4-1.8c-1.2-0.5-2.5-1.4-2.3-2.7c-1.5,0.5-2.6,2.2-2.2,3.8c-0.1-1.9-0.6-3.7-1.5-5.3c-1.1,1.2-2.3,2.3-3.5,3.5
			c0.9-1.5,0.3-3.6-1.2-4.4c-0.8,0-1.5,0.5-1.9,1.2c-1.6-0.7-2.9-1.9-3.6-3.4c-1.2,0.7-2.3,2.1-3,3.2c-1.1-0.5-2-1.4-2.6-2.4
			c-1.9,1.4-4.6-0.4-5.8-2.3c-1.3-2-2.4-4.5-4.7-5.1c-1.9-0.5-4.1,0.9-4.5,2.8c-2.6-1.3-4.6-3.7-5.4-6.4c-0.3-0.9-0.5-1.8-1.1-2.5
			s-2-0.7-2.3,0.2c-0.5-1-0.5-2.3,0-3.3c-2.4-1.4-5.5-1.7-8.2-0.6c-1.3-2.1-1.4-5-0.2-7.2c-1.8-2-4.7-2.7-7.2-1.8
			c-1.1-0.8-1-2.4-0.4-3.6s1.4-2.3,1.6-3.6c0.2-1.3-0.7-2.9-2-2.8c0.2-1.3-1.9-2.2-2.7-1.2c-1.1-1.3-0.1-3.2,0.8-4.6
			s1.7-3.5,0.3-4.6c-0.6-0.5-1.6-0.6-2-1.3c1.7-1.5,3.6-2.9,5.6-4c-0.8-1.2-2.4-1.9-3.8-1.5c1.7-2.1,3.4-4.2,5.1-6.3
			c-0.9-0.1-1.3-1.3-1-2.2c0.4-0.8,1.2-1.4,2-1.8c-1.2-0.8-2.3-1.9-3.1-3c2,0.2,4-0.1,5.8-1c-0.9-0.5-1.4-1.7-1.8-2.6
			c0.8,0.3,1.6,0.4,2.4,0.3c-0.5-0.5-1-1-1.5-1.6c3.2,0.5,6.1-1.7,8.6-3.6c-1.6,0-3.1-1.2-3.4-2.8c1,0.2,2.1,0,3-0.6
			c-0.8-0.8-0.3-2.1,0.3-3c1.5-2.3,3.6-4.3,6-5.7c-0.3,1.1,0.9,2.2,1.9,2c-0.5-0.7-1.1-1.2-1.8-1.7c1.3,0.1,2.6,0.3,3.9,0.4
			c-0.4-0.9-0.2-1.9,0.4-2.7c0.6-0.8,1.4-1.3,2.3-1.8c0,1.2,0.6,2.3,1.5,3c0.8-0.6,1.8-1,2.8-1.2c-0.5,1-0.6,2.3,0.1,3.3
			c0.6,1,2,1.4,3,0.8c-0.4,0.5-0.3,1.3,0.1,1.6c7.8,5.9,17,10.7,26.4,7.9c6-1.8,11.2-5.8,17.1-7.7c2.3-0.8,4.8-1.2,7-0.2
			c0.3,0.1,0.6,0.4,0.5,0.7c1.1-0.8,2.6-0.1,3.8,0.6c2.8,1.8,5.2,4.4,8.1,6C244.7,156.2,252.6,155.6,258.9,155.1z"/>
		<path class="st12" d="M206.5,159c0.3,1.3-0.5,2.6-1.6,3.3s-2.4,1-3.7,1.4c-5.4,1.7-10.1,5.5-12.8,10.5c-4.4-0.1-8.5,3.7-8.8,8.1
			c1.2-1.6,4-1.5,5.1,0.1c-1.6,2.4-2.7,5.1-3.4,8c-0.3,1.5-0.5,3.1-0.2,4.5c0.3,1.5,1.3,2.9,2.8,3.4c-2.9,3.8-2.9,9-2.7,13.8
			c0,1.7,0.1,3.4,0.1,5.1c0,1.7,0.1,3.5,0.3,5.2c0.6,4,2.2,7.9,4.8,11.1c0-1.1,0.6-2.2,1.5-2.8c0.7,0.9,1.5,1.9,2.6,2.1
			c0.6,0.1,1.2,0.1,1.8,0.1c3.5-0.1,7.1,1.3,9.5,3.9c-0.5-1.7,1.9-3,3.5-2.2s2.2,2.6,2.7,4.3c2.9-1.9,6.1-3.2,9.5-4
			c0.8-0.2,1.8-0.3,2.3,0.4c-0.5-0.5-0.1-1.5,0.6-1.8s1.4-0.2,2.1-0.1c2.3,0.4,4.6,0.8,6.8,1.6c-0.1-1.7,1.1-3.4,2.8-3.9
			s3.6,0.4,4.4,1.9c-0.3-2.7,1.8-5.4,4.5-5.9c1.2-0.2,2.5,0,3.7-0.3c1.7-0.4,3.1-1.9,3.4-3.7c-1.7-5.2-0.1-11.3-2.9-15.9
			c-0.6-1-1.4-1.9-1.4-3.1c0-1.1,1.5-2.2,2.3-1.3c-2-6.6,0.6-14.3-2.9-20.2c-1.1-1.9-2.8-3.4-3.6-5.4s-0.2-4.9,1.9-5.4
			c-1.5-1.9-2.4-4.2-2.7-6.5c-1.7,0.8-3.8,0.5-5.2-0.7c-2.6,1.9-6.2,1.5-9.4,1c-2.4-0.4-4.8-0.8-7.2-1.1c-0.9-0.1-1.8-0.3-2.6-0.7
			C212.6,163.1,207,161,206.5,159z"/>
		<path class="st13" d="M213,156.1c-1.8,0-1,0.7,0.4,1.8s3.1,1.8,4.7,2.3c2.8,0.9,5.7,1.3,8.7,1.3c3.1-0.1,5.4-1.3,8-2.8
			c0.3-0.2,0.6-0.4,0.6-0.7c0-0.5-0.6-0.8-1.2-0.8c-6.7-0.9-13.6,0.3-20.2-0.8C213.7,156.2,213.3,156.1,213,156.1z"/>
		<path class="st13" d="M218.9,154c2.3,0,5.5,0.1,5.7,0.1c0.8-0.2,4.1,0.1,4.9,0.3c2.5,0.5,3.9,0.7,5,1.2c0.1,0,0.1,0,0.2,0.1v0.1
			c-0.1,0.4-0.6,0.5-1,0.5c-6.7,0.8-13.5,0.7-20.3-0.1c-0.6-0.1-1.2-0.2-1.5-0.6C212.5,155.2,217,154,218.9,154z"/>
		<path class="st12" d="M237.1,161.6c3.9,1.6,8.2,1.5,12.4,0.9c4.7-0.6,9.6-1.9,12.8-5.4c2.6-2.8,3.7-6.6,4.8-10.2
			c-4,1.5-8,2.9-12.2,3.2s-8.7-0.7-11.8-3.7c-2.9-2.8-4.7-7.1-9.3-7.3c-3.1-0.2-6.3,3-7,5.8C225.3,151.9,230.3,158.8,237.1,161.6z"
			/>
		<path class="st12" d="M225.6,143.4c-0.9-2.6-3.5-4.4-6.2-5s-5.5-0.2-8.2,0.4c-2.4,0.5-4.8,1.2-6.8,2.5c-2.9,1.7-5.2,4.5-8.1,6.2
			c-6.3,3.6-15.3,1.4-19.1-4.7c-1.3,4.5-1.6,10.2,1.5,13.8c2.3,2.7,5.9,4,9.4,4.7c8,1.6,16.4,0.4,24.1-2.2c3.6-1.2,7.1-2.7,9.9-5.3
			C224.7,151.2,226.9,146.9,225.6,143.4z"/>
	</g>
	<g>
		<path class="st9" d="M274,80c-1.3-5.5-2.9-11-3.9-16.5c-1-5.8-1.4-11.7-2.9-17.4c-1.2-4.7-3.3-9.3-5.7-13.5
			c-7.4-13-19.4-24.4-34.2-26.6c-6.8-1-13.6,0-20.3,1.3c-6,1.2-12,2.9-17.5,5.7c-12.2,6.4-20.7,19.1-22.2,32.7
			c-2.2,6.1-3.5,12.5-3.9,18.9c-0.2,3.6,0.5,8.2,3.9,9.3c2.1,0.7,4.4-0.4,6.6-0.8c4.1-0.7,8.3,0.8,12,2.9c3.7,2,7.1,4.5,11.1,5.8
			c9,2.9,18.7-0.7,28.1-2.1c10.9-1.6,22.2-0.2,32.3,4c3.4,1.4,6.7,3.2,9.2,5.9c2.5,2.7,3.4,4.3,6.2,6.7c0.3,0.3,1.1,0.3,1.5,0.2
			c0.7-0.1,1.2-0.4,1.3-1C276.3,89.8,275.3,85.6,274,80z"/>
		<path class="st8" d="M275.6,95.1c-2.5-8.5-9.5-15.2-17.7-18.6c-8.2-3.4-17.4-3.6-26.1-2c-10.9,2-21.7,6.9-32.7,5.4
			c-4.6-0.6-9.1-2.3-13-5c2.9,2.1,5.2,3.2,8.5,4.6c1.7,0.7,3.4,1.5,5.2,1.9c2.4,0.6,4.8,0.7,7.2,0.6c10.4-0.4,20.6-4,31-3.7
			c12.5,0.4,24.4,6.7,32.6,16.1c0.8,0.9,1.6,1.9,2.8,2C274.9,96.6,276,96.2,275.6,95.1z"/>
		<path class="st7" d="M220.6,7c-5.7,1.1-11.1,3.5-15.7,6.9c-8.5,6.1-14.4,15.4-18.8,24.9c-4.4,9.6-7.5,19.7-11.9,29.3"/>
		<path class="st7" d="M232,10c1.8,3.3,3.6,6.6,4.8,10.2c4.3,12.8,0.6,27.4,6.1,39.7c2,4.6,5.3,8.8,5.5,13.8"/>
		<path d="M253.7,34.7c-0.7,0.1-1.1,2.1-0.5,3.2c0.3,0.5,0.7,1,1.3,1.2c0.4,0.1,0.8,0,1-0.2c0.3-0.3,0.4-0.9,0.3-1.4
			C255.6,36.1,255.1,34.5,253.7,34.7z"/>
		<path d="M184,23.5c1,0.1,2.1-0.4,2.8-1.2c0.7-0.7,2.3-1.8,1.7-2.6c-0.7-0.9-2.2,0.5-3.1,1.1s-1.5,1.8-1.1,2.9"/>
	</g>
</g>
<g id="Coffee">
	<path class="st14" d="M416.2,491.1c147.4-2.6,442.2,0,442.2,0"/>
	<path class="st12" d="M543.3,429.2c-1,0.8-1.6,1.9-0.4,6.1c2.3,1.5,7.1,3.4,11.7,3.8c14.9,1.2,39.3,3.8,53.6-0.4
		c2.2-0.6,4.4-1.4,6.1-3c1.7-1.6,2.6-4.1,1.8-6.2c-1-2.4-3.7-3.4-6.2-4c-10.9-2.9-19.3-3.2-30.3-3.3
		C566.3,422.1,549.4,424.4,543.3,429.2z"/>
	<path class="st7" d="M556.6,427.4c-1.2,0-2.5-0.1-3.5,0.6c-1,0.6-1.7,2.1-0.9,3.1c0.4,0.6,1.2,0.8,2,1c12.1,2.8,24.6,4,37,3.4
		c5.7-0.3,11.8-1,16.3-4.6c0-1.2-0.8-2.3-2-2.6"/>
	<path class="st12" d="M614.3,435.6c-1.3,14.1-10.5,60.7-15.4,89c-2.6,2.2-6,4.4-17.7,4.4c-10.9,0-21.4-4.1-21.4-4.1
		c-2.3-8.1-13.3-77.4-14.2-88.3C545.5,436.6,591.9,447.3,614.3,435.6z"/>
	<path class="st7" d="M553.3,445.2c14.6,1.5,33.5,3.2,48,0.9"/>
	<path class="st7" d="M556.1,454.8c14.4,3,31.6,2.8,46.4,0.6"/>
	<path class="st15" d="M566.2,486.5c1.2-3.5,2.7-6.9,4.7-10.1c3-5,1.3-6.1-4-7c-3.1-0.5-6.2-1-8.3,1.9c-1.7,2.3-1.2,5.6-0.5,8.2
		C559.5,484.7,561.2,485.8,566.2,486.5z"/>
	<path class="st15" d="M592.2,489.1c1.8-1.2,4.2,0.5,6.2-0.2c1.8-0.6,2.4-2.9,2.7-4.8c0.5-2.9,0.9-5.8,1.4-8.7
		c0.2-1-11.2-0.5-12.8,1.6C587,480.5,590.5,485.9,592.2,489.1z"/>
	<path class="st15" d="M573,523.1c0.3,0.1,0.7,0.2,1,0.2c0.4-0.1,0.7-0.3,1-0.6c1.1-0.9,2.1-1.8,3.2-2.8c0.3-0.2,0.5-0.4,0.6-0.8
		c0.2-0.4,0.1-0.9-0.1-1.3c-0.8-3-1.6-5.9-2.3-8.9c-3.1,0.8-9.8,1.3-10.5,5.3C565.5,517.6,570.2,522.1,573,523.1z"/>
	<path class="st7" d="M569.4,516.1c0,0,20.4,2.1,27.5-1.1"/>
	<path class="st12" d="M579.7,373.2c0,0-4.7-1.9-5.5,1.3l3.2,55.8c2.2,1.3,7,1.6,6.8,0c-1.9-17.7-3.2-39-4.6-56.7"/>
	<path class="st7" d="M576.3,373c-1,0.2-2.3,1.2-2,1.6c0.2,0.3,0.5,0.3,0.9,0.3c1.6,0,4.6,0,4.6-1.2
		C579.1,372.9,577.4,372.8,576.3,373z"/>
</g>
</svg>
